<svg xmlns="http://www.w3.org/2000/svg" viewBox="0 0 244.24 270.55"><defs><style>.cls-1{fill:#bc4b00;stroke:#000;stroke-miterlimit:10;stroke-width:3px;}</style></defs><title>Asset 1</title><g id="Layer_2" data-name="Layer 2"><g id="Layer_1-2" data-name="Layer 1"><path class="cls-1" d="M67.67,1.66c-10.46.21-10.2.18-13.85,2.09C46.49,7.61,42.06,18.23,42.94,29.84c1,13.41,4.73,36.08,7.68,47C53.67,88.1,56.67,93.5,61.5,96.44c10.51,6.39,42.55,10.58,70.9,9.27,18.5-.85,33.74-3,43.84-6.32C186.62,96,190,91.3,194.36,74.17a253.55,253.55,0,0,0,5.07-27.45c2.14-15.35,2.42-22.93,1-28.16Q197.8,8.36,191.21,4.1c-2-1.3-3.63-1.8-7.07-2.21-3-.35-101-.55-116.47-.23Zm57.74,43.51c1.37.9,9.86,9.17,12.76,12.42,1.82,2,2.3,2.77,2.56,3.88a6.11,6.11,0,0,1-.89,5.08c-.48.73-4.08,4.52-8,8.37l-7.07,7h-5.24l-7.19-7.17c-4-4-7.53-7.68-7.95-8.31a6.42,6.42,0,0,1-.84-5c.27-1.12.77-1.86,2.84-4.15,3.68-4.07,11.85-11.84,13.14-12.5a6.75,6.75,0,0,1,5.84.38Z" transform="translate(0 0)"/><path class="cls-1" d="M30.66,31.45A54.17,54.17,0,0,0,10.18,50,52.47,52.47,0,0,0,1.53,80.73c.18,5.35.51,7.15,2.76,14.85,4.24,14.56,27.26,90,28,91.67.13.3.3-13.32.38-30.71l.15-31.27-6.15-19.78L20.5,85.7l.12-6.59c.11-6,.19-6.83.84-9.28a32.67,32.67,0,0,1,5.71-11.2c2.47-3.06,6.55-7.22,8-8.2,1-.63,1.13-.88,1-1.48-.07-.4-.56-4.36-1.1-8.79-.95-7.94-1.32-10.1-1.7-10.1a29.27,29.27,0,0,0-2.79,1.39Z" transform="translate(0 0)"/><path class="cls-1" d="M210.51,30.63c-.14.24-.58,3.58-2.25,17.26L208,49.72l1,.67a58,58,0,0,1,8.32,8.48,35.37,35.37,0,0,1,6,13.25,29.6,29.6,0,0,1,.48,7,25.18,25.18,0,0,1-1,8.46c-1,4-3.44,12.13-8.41,28.22l-3,9.67.07,31.31.06,31.32,1.55-4.64c3.71-11.11,22-71.05,27.27-89.46,2.2-7.65,2.32-8.46,2.31-15a44.39,44.39,0,0,0-2.18-15.19c-4.2-13.84-14.15-25.94-26.38-32.07-2.78-1.4-3.36-1.56-3.67-1.06Z" transform="translate(0 0)"/><path class="cls-1" d="M41.76,92c-.1,6.55-.17,31.91-.17,56.33v44.41L40,195a25.34,25.34,0,0,0-4,9.42c-1.54,6.42-2.27,13-2.5,22.45-.45,18.85,2.6,35,7.7,40.76l1.28,1.44h159.4l1.24-1.44c4.37-5.11,6.43-12.73,7.32-27.13a238.69,238.69,0,0,0-.43-27.15c-1-9.17-2.83-14.89-6-19l-1.25-1.61,0-23.11c0-12.71-.12-38.1-.21-56.43l-.16-33.32L201,83.73c-2.58,7.51-4.86,12.1-7.73,15.57-2.47,3-8.16,6.36-14.22,8.44-9,3.09-21.72,5.24-37.64,6.35-8.17.58-30.94.66-38,.15-23.84-1.75-39.6-5.49-48.43-11.48-4.78-3.25-8.18-8.65-11.37-18.07-.83-2.46-1.56-4.52-1.61-4.57s-.18,5.29-.28,11.85ZM63,136l1.29.82,0,16.32c0,9-.11,19.63-.23,23.69-.25,8.55-.4,9.23-2.08,9.51-1.42.23-2.57-.06-3-.77-.77-1.2-.9-4.89-.91-26.36l0-21.71,1.4-1.16a5.5,5.5,0,0,1,1.85-1.16A5.26,5.26,0,0,1,63,136Zm121.84.15a7.06,7.06,0,0,1,1.54,1.48c.32.6.34,20.44,0,36.2-.18,9.26-.24,10.19-.72,11.17-.61,1.24-1.5,1.61-3.22,1.34-2.06-.32-2,.92-2-25.9l-.07-23.76,1.16-.75a4.85,4.85,0,0,1,1.6-.75,4.93,4.93,0,0,1,1.71,1Zm-102.2,6.64c4.82,1.77,13.66,5.32,27.7,11.11,6.36,2.63,11.69,4.77,11.86,4.77s4.83-1.87,10.32-4.13C154,145.71,164.72,141.5,166,141.5a3,3,0,0,1,2.38,2.05,2.06,2.06,0,0,1-.19,2c-.61,1.24-2.69,2.33-11,5.78-12.46,5.14-19.93,8.32-22.76,9.66l-3,1.41,2,.93c1.11.51,6.31,2.73,11.58,5s11.12,4.72,13,5.58c3.17,1.43,3.5,1.65,3.71,2.42.43,1.67-.49,3.88-1.76,4.19a4.2,4.2,0,0,1-1.83-.16c-1.07-.32-9.39-3.65-25.59-10.24-4.29-1.74-8.4-3.36-9.16-3.6L122,166l-7.91,3.15c-4.35,1.74-12.33,4.94-17.74,7.13s-10.24,4.05-10.73,4.14a2.51,2.51,0,0,1-2.74-1.37,3.29,3.29,0,0,1-.29-3.22c.37-.67,1.63-1.25,14.17-6.48,11.2-4.66,15.59-6.56,15.95-6.88s-5.68-3.05-20.46-9.12c-14.09-5.79-15.73-6.62-16.26-8.19s.78-3.69,2.39-3.69a28.24,28.24,0,0,1,4.23,1.33Zm58.4,62.3a2.69,2.69,0,0,1,2.46,2.88,2.66,2.66,0,0,1-.66,2l-.66.77-11,.16c-13.63.2-27.9-.06-29-.53s-1.23-.72-1.23-2.55c0-1.4.08-1.64.68-2a6.64,6.64,0,0,1,2.13-.65c2-.3,35.84-.31,37.34,0Z" transform="translate(0 0)"/><path class="cls-1" d="M116.15,55a3.65,3.65,0,0,0-1.21,1.44c-.48,1-.54,1.66-.54,6.28,0,7.15.46,8.6,2.71,8.6a2,2,0,0,0,1.66-.57c.48-.52.53-1.15.61-6.91.09-7.08-.06-8.12-1.32-8.77-1-.49-1.06-.49-1.91-.07Z" transform="translate(0 0)"/><path class="cls-1" d="M126.2,55.07c-1.17.64-1.35,1.89-1.25,8.86.07,5.71.12,6.27.6,6.8a2.59,2.59,0,0,0,3.49-.25c.64-.85,1.05-4.2,1-8.33s-.28-5.48-1.23-6.41-1.71-1.17-2.63-.67Z" transform="translate(0 0)"/></g></g></svg>