<svg xmlns="http://www.w3.org/2000/svg" viewBox="0 0 1539.97 281.53"><defs><style>.cls-1,.cls-4{fill:#444;}.cls-1{stroke:#fff;stroke-miterlimit:10;stroke-width:5px;}.cls-2{fill:#fff;}.cls-3{fill:#0071bc;}.cls-5{fill:#bc4b00;}</style></defs><title>Asset 2</title><g id="Layer_2" data-name="Layer 2"><g id="Layer_6" data-name="Layer 6"><path class="cls-1" d="M443.94,160.81a60.24,60.24,0,0,1,.53,7.93q0,21.93-18.77,47.3a172.7,172.7,0,0,1-37,36.47Q368.62,267,361.48,266q-7.92-1-28-11.76T311.8,239.56a5.11,5.11,0,0,1-.53-2.38,12.42,12.42,0,0,1,.92-4.09,12.15,12.15,0,0,0,.93-3.83V58c0-2.81,3.87-4.23,11.63-4.23A36.32,36.32,0,0,1,334,54.83q12.42-7.94,31.32-14.14t32.37-6.21q7.94,0,12.29,2.25A22.4,22.4,0,0,1,418,44.52q4.75,7.68,6.61,9.52.53.52,8.72,7.13a17.94,17.94,0,0,1,6.08,8.46,21.74,21.74,0,0,1,1.05,6.87q0,20.88-27.75,45.46Q441,143.36,443.94,160.81ZM397.69,74.92c-.35-.7-1.32-1.06-2.91-1.06q-6.07,0-19,6.34T358.31,92.36v27.48a226.09,226.09,0,0,0,29.21-27.48Q399.8,78.35,397.69,74.92Zm9.51,78.22q-6.87.27-23.25,6.61-17.71,7.14-25.64,14v49.15q17.18-4.75,33.83-29.07T407.2,153.14Z"/><path class="cls-1" d="M800.77,55.89q25.37,13.47,25.37,46.25,0,23.77-18.76,60.25-20.88,40.71-42.55,40.7-4.23,0-9.39-4.09t-10.17-8.06v44.92a28.52,28.52,0,0,0,1.32,7.93q1.85,6.35,2.38,8.72t-2,8.59q-2.52,6.21-7.27,6.74t-20.61-6.61q-16.65-7.4-20.62-13.21-2.37-3.69,0-11.1a29.8,29.8,0,0,0,1.85-8.72V64.87q0-1.58-1.85-5.81c-1.23-2.82-1.76-4.84-1.58-6.08q1.58-12.69,9.51-12.69,1.32,0,10.7,3t14.94,3.31q7.92.27,20.21-4.23t17.84-4.49a26,26,0,0,1,6.35.79q6.07,1.59,12.68,7.93Q797.08,54,800.77,55.89ZM778.83,76.24q-6.08,0-16.91,6.6T745.27,97.38v63.69q14.26-4.48,27-32.51,11.63-25.36,11.62-43.07Q783.85,76.23,778.83,76.24Z"/><path class="cls-1" d="M1194,83.9a15,15,0,0,1-5.82-1.72c-2.46-1.14-4.49-1.54-6.07-1.19l-27.23,7.4v139a44.12,44.12,0,0,0,3.7,16.65q1.07,2.64-.52,10-1.59,8.19-5,10.31a8,8,0,0,1-2.65.26q-8.72,0-24.31-3.44-17.44-4-20.62-7.66-3.71-4.75.27-12.68,3.43-6.87,3.44-10V100l-18.77,4.76A15.29,15.29,0,0,0,1086,107c-2,1.32-3.75,1.81-5.15,1.45q-6.09-1.59-16.65-15.73T1055,73.59q2.12-6.07,12.42-9.25a17.28,17.28,0,0,1,6.87-.26,20,20,0,0,0,6.61,0l92-23.52a57.18,57.18,0,0,0,7.66-3.17,13.93,13.93,0,0,1,7.66-1.32c4.93.7,8.29,2.64,10,5.81q1.85,3.16,4,11.89a73.94,73.94,0,0,1,2.64,18q0,5.82-1.45,8.86T1194,83.9Z"/><path class="cls-1" d="M1537.47,206.27q0,5-8.72,13.47-7.14,15.6-12.68,22.47-12.16,15.85-29.87,18.76a50.91,50.91,0,0,1-7.13.53q-14.8,0-36.47-14.27-18.78-12.69-18.77-58.41,0-33.82,10.31-61.31,11.35-29.87,27.75-30.92,12.94-.8,31.71,6.87T1519,120.37q5.55,7.66,5.55,20.35c0,2.29-.17,5.6-.53,9.91a58.11,58.11,0,0,0-.26,9.12q.52,7.14.53,6.61,0,8.46-8.19,8.19a65.62,65.62,0,0,1-18-2.91q-11.35-4-13.74-10.83-.8-2.38,2.25-6.34t2.51-6.61c.35-1.23.53-4.32.53-9.25q0-15.86-5.55-16.39-8.46-.52-14.27,25.64a228.51,228.51,0,0,0-5.29,50.74q0,32.51,7.66,34.36,6.09,1.32,15.86-13.22,8.19-12.42,8.85-16.78t1.19-8.85q1.86-7.4,9.52-6.87,4.76.52,16.65,6.08t12.55,8.32A20.69,20.69,0,0,1,1537.47,206.27Z"/><path class="cls-1" d="M570.61,252a9.27,9.27,0,0,1-3.17,6.34,7.81,7.81,0,0,1-6.61,2.11q-32.77-4.5-36.47-12.42a4.58,4.58,0,0,1-.53-2.11A5,5,0,0,1,525,243a7.76,7.76,0,0,0,1.45-2.78,5.83,5.83,0,0,1,1.06-2.24q.53-2.11.26-9.25-3.16,2.37-9.51,12.68-6.61,11.37-11.63,15.86a27.41,27.41,0,0,1-19.29,7.93q-6.35,0-12.42-5a132.9,132.9,0,0,1-10.31-10.31q-12.69-14.26-13.74-15.59-5.55-7.4-5.55-14a17,17,0,0,1,.53-4.23q5-23.25,31.18-44.13,19-15.07,53.91-32,0-8.46-4.22-10.84-2.65-1.58-18.5,5.95T486,147.86a79.94,79.94,0,0,1-6.87,5.81c-3,1.77-5.73,2.29-8.2,1.59q-2.91-.8-12.42-9.52t-10.31-11.63q-2.12-7.12,4.5-11.1.25-.26,10.57-3.17l19.56-10.57q20.61-9.76,34.88-10.57,6.07-.26,13.74,6.34,6.87,6.09,13.88,12t14.4,11.49q8.46,7.41,8.46,14.28v99.9Q570.87,249.61,570.61,252Zm-42.29-77.17a57.17,57.17,0,0,0-22.2,15.32q-6.87,8.48-13.74,16.65a64.13,64.13,0,0,0-10.44,14.41q-4.89,8.85-4.89,13.08c0,1.41.53,2.11,1.59,2.11q5.55,0,24.84-23.91T528.32,174.82Z"/><path class="cls-1" d="M691.54,206.27q0,5-8.72,13.47-7.14,15.6-12.69,22.47Q658,258.07,640.27,261a50.91,50.91,0,0,1-7.13.53q-14.8,0-36.48-14.27-18.76-12.69-18.76-58.41,0-33.82,10.31-61.31Q599.56,97.64,616,96.59q12.94-.8,31.71,6.87T673,120.37q5.55,7.66,5.55,20.35c0,2.29-.18,5.6-.53,9.91a58.11,58.11,0,0,0-.26,9.12q.53,7.14.53,6.61,0,8.46-8.2,8.19a65.61,65.61,0,0,1-18-2.91q-11.35-4-13.74-10.83-.79-2.38,2.25-6.34t2.51-6.61c.35-1.23.53-4.32.53-9.25q0-15.86-5.55-16.39-8.46-.52-14.27,25.64a228.51,228.51,0,0,0-5.29,50.74q0,32.51,7.66,34.36,6.07,1.32,15.86-13.22Q650.31,207.32,651,203t1.19-8.85q1.85-7.4,9.52-6.87,4.76.52,16.65,6.08t12.55,8.32A20.69,20.69,0,0,1,691.54,206.27Z"/><path class="cls-1" d="M955,252a9.24,9.24,0,0,1-3.18,6.34,7.78,7.78,0,0,1-6.6,2.11q-32.78-4.5-36.47-12.42a4.58,4.58,0,0,1-.53-2.11,5,5,0,0,1,1.19-2.91,7.6,7.6,0,0,0,1.45-2.78A5.83,5.83,0,0,1,912,238q.52-2.11.27-9.25-3.18,2.37-9.52,12.68-6.62,11.37-11.63,15.86a27.41,27.41,0,0,1-19.29,7.93q-6.35,0-12.42-5a132.9,132.9,0,0,1-10.31-10.31q-12.69-14.26-13.74-15.59-5.55-7.4-5.55-14a17,17,0,0,1,.53-4.23q5-23.25,31.18-44.13,19-15.07,53.92-32c0-5.64-1.42-9.25-4.23-10.84q-2.64-1.58-18.5,5.95t-22.2,12.82a79.94,79.94,0,0,1-6.87,5.81c-3,1.77-5.73,2.29-8.2,1.59q-2.91-.8-12.42-9.52t-10.31-11.63q-2.11-7.12,4.5-11.1.26-.26,10.57-3.17l19.56-10.57q20.61-9.76,34.88-10.57,6.08-.26,13.75,6.34,6.86,6.09,13.87,12t14.4,11.49q8.46,7.41,8.46,14.28v99.9Q955.29,249.61,955,252Zm-42.29-77.17a57.17,57.17,0,0,0-22.2,15.32q-6.87,8.48-13.74,16.65a64.13,64.13,0,0,0-10.44,14.41q-4.89,8.85-4.89,13.08c0,1.41.53,2.11,1.59,2.11q5.55,0,24.84-23.91T912.74,174.82Z"/><path class="cls-1" d="M1076,206.27q0,5-8.72,13.47-7.14,15.6-12.69,22.47-12.15,15.85-29.86,18.76a50.94,50.94,0,0,1-7.14.53q-14.79,0-36.47-14.27-18.76-12.69-18.76-58.41,0-33.82,10.31-61.31Q984,97.64,1000.38,96.59q12.95-.8,31.71,6.87t25.37,16.91Q1063,128,1063,140.72c0,2.29-.18,5.6-.53,9.91a58.11,58.11,0,0,0-.26,9.12q.52,7.14.53,6.61,0,8.46-8.2,8.19a65.61,65.61,0,0,1-18-2.91q-11.36-4-13.74-10.83-.8-2.38,2.25-6.34t2.51-6.61c.35-1.23.53-4.32.53-9.25q0-15.86-5.55-16.39-8.46-.52-14.28,25.64A229.12,229.12,0,0,0,1003,198.6q0,32.51,7.66,34.36,6.08,1.32,15.86-13.22,8.19-12.42,8.85-16.78t1.19-8.85q1.85-7.4,9.52-6.87,4.76.52,16.65,6.08t12.55,8.32A20.69,20.69,0,0,1,1076,206.27Z"/><path class="cls-1" d="M1289.55,117.73c.7,2.82-.26,5.11-2.91,6.87a68.61,68.61,0,0,0-6.07,3.44q-16.65,25.36-45.2,68.45,0,42,.27,43.34t2,6.74a30.51,30.51,0,0,1,1.72,8.59,6.83,6.83,0,0,1-4.5,6.87,19.52,19.52,0,0,1-7.92,1.32q-10.05,0-22.2-4.49-15.33-5.3-15.33-13.48c0-1.59.7-4.14,2.11-7.67a24.62,24.62,0,0,0,2.12-8.72V124.34q-2.91-14.81-2.91-15.33,0-8.19,7.4-10.31a31.87,31.87,0,0,1,7.66-.79,67.78,67.78,0,0,1,19.43,3q10.17,3,12,6.47a5.94,5.94,0,0,1,.53,2.64q0,1.34-3.7,12.69v12.69q6.35-11.37,12.42-22.73,8.19-14.26,12.16-15.06,5.8-1.07,17.71,6.86T1289.55,117.73Z"/><path class="cls-1" d="M1416.54,252a9.27,9.27,0,0,1-3.17,6.34,7.8,7.8,0,0,1-6.61,2.11q-32.77-4.5-36.47-12.42a4.58,4.58,0,0,1-.53-2.11A5,5,0,0,1,1371,243a7.6,7.6,0,0,0,1.45-2.78,5.83,5.83,0,0,1,1.06-2.24q.52-2.11.27-9.25-3.18,2.37-9.52,12.68-6.62,11.37-11.63,15.86a27.41,27.41,0,0,1-19.29,7.93q-6.35,0-12.42-5a132.9,132.9,0,0,1-10.31-10.31q-12.69-14.26-13.74-15.59-5.55-7.4-5.55-14a17,17,0,0,1,.53-4.23q5-23.25,31.18-44.13,19-15.07,53.92-32c0-5.64-1.42-9.25-4.23-10.84q-2.65-1.58-18.5,5.95T1332,147.86a78.38,78.38,0,0,1-6.87,5.81c-3,1.77-5.73,2.29-8.2,1.59q-2.91-.8-12.42-9.52t-10.3-11.63q-2.13-7.12,4.49-11.1.25-.26,10.57-3.17l19.56-10.57q20.61-9.76,34.88-10.57,6.08-.26,13.74,6.34,6.87,6.09,13.88,12t14.4,11.49q8.46,7.41,8.46,14.28v99.9Q1416.8,249.61,1416.54,252Zm-42.29-77.17a57.17,57.17,0,0,0-22.2,15.32q-6.87,8.48-13.74,16.65a64.13,64.13,0,0,0-10.44,14.41q-4.89,8.85-4.89,13.08c0,1.41.53,2.11,1.59,2.11q5.55,0,24.84-23.91T1374.25,174.82Z"/><path class="cls-2" d="M73.17,7.14c-10.46.21-10.2.17-13.85,2.09C52,13.09,47.56,23.71,48.44,35.32c1,13.41,4.73,36.08,7.68,47C59.17,93.58,62.17,99,67,101.92c10.51,6.39,42.55,10.58,70.9,9.27,18.5-.85,33.74-3,43.84-6.32,10.39-3.36,13.79-8.1,18.12-25.22a253.55,253.55,0,0,0,5.07-27.45c2.14-15.35,2.42-22.93,1-28.16q-2.68-10.2-9.27-14.46c-2-1.3-3.63-1.8-7.07-2.21-3-.35-101-.55-116.47-.23Zm57.74,43.51c1.37.9,9.86,9.17,12.76,12.42,1.82,2.05,2.3,2.76,2.56,3.88a6.11,6.11,0,0,1-.89,5.08c-.48.73-4.08,4.51-8,8.37l-7.08,7h-5.24l-7.19-7.17c-4-4-7.52-7.68-7.95-8.31a6.42,6.42,0,0,1-.84-5c.27-1.12.77-1.86,2.84-4.15,3.68-4.07,11.85-11.84,13.14-12.5a6.75,6.75,0,0,1,5.84.38Z"/><path class="cls-2" d="M127.58,118.42c-24.57,0-52.77-3.56-64.22-10.52-7.51-4.57-11-12.81-14-23.77-3.07-11.36-6.84-34.37-7.9-48.28C40.36,21.39,46.23,8.21,56.07,3l.18-.1C61.1.38,62.4.36,72.47.15H73c10.39-.21,113.1-.23,117.42.28A21.33,21.33,0,0,1,200.5,3.7c5.89,3.79,10,10,12.25,18.56,1.65,6.29,1.42,14.37-.89,30.9a258.48,258.48,0,0,1-5.22,28.2c-4.43,17.52-8.56,25.58-22.74,30.17-10.72,3.47-26.51,5.77-45.67,6.65C134.8,118.34,131.23,118.42,127.58,118.42ZM73.31,14.14h-.55c-8.07.16-8.07.16-10,1.17l-.19.11c-4.13,2.16-7.91,9.51-7.16,19.36,1,13,4.61,35.18,7.46,45.68,3.06,11.31,5.53,14.12,7.75,15.47,8.21,5,37.72,9.61,67,8.26,17.68-.82,32.6-2.94,42-6,6.76-2.19,9.31-3.78,13.48-20.28A246.5,246.5,0,0,0,198,51.23c2-14.11,2.3-21.24,1.21-25.41-1.33-5-3.44-8.52-6.29-10.35-.8-.52-1.24-.8-4-1.13-5.11-.27-99-.55-115.64-.2ZM133.2,94.43h-11l-9.23-9.21c-3.5-3.5-7.87-8-8.83-9.38a13.4,13.4,0,0,1-1.83-10.53c.69-2.91,2.14-4.67,4.46-7.23,1.51-1.67,11.9-12.39,15.15-14a13.6,13.6,0,0,1,12.87.77c2.44,1.61,11.68,10.86,14.14,13.61,2,2.25,3.46,4.05,4.14,6.91a13.16,13.16,0,0,1-1.85,10.56c-1.16,1.76-6.59,7.22-8.87,9.48Zm-17-25.93c1.18,1.28,3.6,3.8,6.62,6.81l4.86,4.85,4.76-4.72c3.09-3.07,5.57-5.67,6.69-6.91-.17-.21-.4-.47-.7-.81-2.36-2.65-8.28-8.43-10.73-10.63-2.5,2.2-7.82,7.31-10.58,10.37C116.73,67.91,116.43,68.24,116.21,68.5Z"/><path class="cls-2" d="M36.16,36.93A54.17,54.17,0,0,0,15.68,55.5,52.46,52.46,0,0,0,7,86.2c.18,5.36.51,7.16,2.76,14.86,4.24,14.56,27.26,90,28,91.67.13.3.3-13.32.38-30.72l.15-31.26L32.14,111,26,91.18l.12-6.59c.11-6,.19-6.83.84-9.28a32.67,32.67,0,0,1,5.71-11.2c2.47-3.06,6.56-7.22,8-8.2,1-.64,1.13-.88,1-1.49-.07-.39-.56-4.35-1.1-8.78-.95-8-1.32-10.1-1.7-10.1a29.27,29.27,0,0,0-2.79,1.39Z"/><path class="cls-2" d="M33.55,200.72l-2.23-5.25C30.19,192.83,5.6,111.7,3.07,103,.66,94.76.23,92.43,0,86.44a59.42,59.42,0,0,1,9.8-34.79,61.16,61.16,0,0,1,23-20.88h0C35.69,29.24,37,28.54,39,28.54c2.83,0,6.43,1.37,7.54,7.9.27,1.59.59,4,1.11,8.37.58,4.79,1,8.08,1.06,8.52.39,2.31,0,5.71-4.08,8.42a58.09,58.09,0,0,0-6.48,6.76,25.69,25.69,0,0,0-4.37,8.59c-.44,1.63-.5,1.88-.61,7.62L33,90.18,45.3,129.71l-.16,32.34c0,8.32-.1,16.08-.17,21.85,0,2.79-.07,5-.11,6.6-.06,2.79-3.54,13.36-9.08,14.48Zm.17-154.08a46.23,46.23,0,0,0-12.2,12.71A45.41,45.41,0,0,0,14,86c.15,4.56.31,5.7,2.48,13.13,2.26,7.77,8.63,28.77,14.7,48.67l.08-16L19,92.17l.14-7.71c.12-6.21.22-7.71,1.07-10.94a39.45,39.45,0,0,1,7-13.82,79.8,79.8,0,0,1,7.16-7.63C34.12,49.9,33.81,47.4,33.72,46.64Zm1.1,8.82a.68.68,0,0,1,0,.14A.93.93,0,0,0,34.82,55.46Z"/><path class="cls-2" d="M216,36.11c-.14.24-.58,3.58-2.25,17.26l-.22,1.83,1,.67a58,58,0,0,1,8.32,8.48,35.37,35.37,0,0,1,6,13.25,29.6,29.6,0,0,1,.48,7,25.18,25.18,0,0,1-1,8.46c-1,4-3.44,12.13-8.41,28.22l-3,9.67.07,31.31.06,31.32,1.55-4.65c3.71-11.1,22-71,27.27-89.45,2.2-7.65,2.32-8.46,2.31-15a44.12,44.12,0,0,0-2.18-15.19c-4.2-13.85-14.15-25.94-26.38-32.07-2.78-1.4-3.36-1.57-3.67-1.06Z"/><path class="cls-2" d="M210.21,236.35,210,129.87l3.3-10.69c4.92-15.92,7.33-24,8.31-27.87a18.67,18.67,0,0,0,.79-6.79,22.93,22.93,0,0,0-.32-5.42,28.26,28.26,0,0,0-4.82-10.58,56.5,56.5,0,0,0-6.63-6.86l-4.55-3,.75-6.13c2.25-18.4,2.25-18.46,3.22-20,3.71-6.12,10.31-2.82,12.79-1.57,14,7,25.17,20.58,29.94,36.3a51.2,51.2,0,0,1,2.48,17.21c0,7.26-.2,8.69-2.58,17-5.26,18.31-23.67,78.69-27.36,89.74ZM224,132l0,16.16c6-19.6,12.41-41,15.18-50.61,2.05-7.13,2.05-7.24,2-13.08a37.39,37.39,0,0,0-1.88-13.17,48.13,48.13,0,0,0-17.71-24.76l-.68,5.6a71.42,71.42,0,0,1,7.52,8.07,42.56,42.56,0,0,1,7.24,15.92,36,36,0,0,1,.65,8.51,31.43,31.43,0,0,1-1.22,10.15c-1.06,4.17-3.44,12.18-8.51,28.56Zm-2-92.24v0Z"/><path class="cls-2" d="M47.26,97.44c-.09,6.56-.17,31.92-.17,56.34v44.41l-1.63,2.27a25.27,25.27,0,0,0-4,9.42c-1.54,6.42-2.27,13-2.5,22.45-.45,18.85,2.6,35,7.7,40.76L48,274.53h159.4l1.24-1.44C213,268,215,260.36,215.92,246a238.69,238.69,0,0,0-.43-27.15c-1-9.17-2.83-14.89-6-18.95l-1.25-1.61,0-23.11c0-12.71-.12-38.1-.21-56.43l-.16-33.33-1.32,3.83c-2.57,7.51-4.85,12.1-7.73,15.57-2.47,3-8.16,6.36-14.22,8.44-9,3.09-21.72,5.24-37.64,6.35-8.17.57-30.94.66-38,.14-23.84-1.74-39.6-5.48-48.43-11.47-4.78-3.25-8.18-8.65-11.37-18.08-.83-2.45-1.56-4.51-1.61-4.56s-.18,5.29-.28,11.84Zm21.21,44.08,1.29.81,0,16.32c0,9-.11,19.64-.23,23.7-.25,8.55-.4,9.23-2.08,9.5-1.42.24-2.57,0-3-.76-.77-1.2-.9-4.89-.91-26.36l0-21.71,1.4-1.16a5.5,5.5,0,0,1,1.85-1.16,5.26,5.26,0,0,1,1.75.82Zm121.84.15a7.06,7.06,0,0,1,1.54,1.48c.32.6.34,20.43,0,36.19-.18,9.26-.24,10.2-.72,11.18-.61,1.24-1.5,1.61-3.22,1.34-2.06-.32-2,.92-2-25.9l-.07-23.76,1.16-.75a4.85,4.85,0,0,1,1.6-.75,4.93,4.93,0,0,1,1.71,1Zm-102.2,6.64c4.82,1.77,13.66,5.32,27.7,11.11,6.36,2.62,11.69,4.77,11.87,4.77s4.82-1.87,10.31-4.13c21.46-8.87,32.23-13.08,33.46-13.08a3,3,0,0,1,2.38,2.05,2.06,2.06,0,0,1-.19,2c-.61,1.24-2.69,2.33-11,5.78-12.46,5.14-19.93,8.32-22.76,9.66l-3,1.41,2,.93c1.11.51,6.31,2.73,11.58,4.95s11.12,4.72,13,5.58c3.17,1.43,3.5,1.65,3.71,2.42.43,1.66-.49,3.87-1.76,4.19a4.2,4.2,0,0,1-1.83-.16c-1.06-.32-9.39-3.66-25.59-10.24-4.29-1.74-8.4-3.36-9.16-3.6l-1.38-.43-7.91,3.15c-4.35,1.74-12.33,4.94-17.74,7.13s-10.24,4.05-10.73,4.14a2.51,2.51,0,0,1-2.74-1.37,3.29,3.29,0,0,1-.29-3.22c.37-.67,1.63-1.25,14.17-6.48,11.2-4.66,15.59-6.56,15.95-6.88s-5.68-3-20.46-9.12c-14.09-5.8-15.73-6.62-16.26-8.19s.78-3.69,2.39-3.69a28.24,28.24,0,0,1,4.23,1.33Zm58.4,62.3a2.68,2.68,0,0,1,2.46,2.88,2.66,2.66,0,0,1-.66,2l-.65.77-11,.16c-13.63.19-27.89-.07-29-.53s-1.23-.72-1.23-2.55c0-1.4.08-1.64.68-2a6.93,6.93,0,0,1,2.13-.64c2-.3,35.84-.31,37.34,0Z"/><path class="cls-2" d="M210.59,281.53H44.8l-3.36-3.81c-9.53-10.78-9.65-37.59-9.46-45.55.24-9.89,1.05-17,2.7-23.92a32.06,32.06,0,0,1,5.09-11.87l.32-.44V153.78c0-24.51.08-49.83.17-56.44.05-3.28.11-6.25.16-8.41.1-4.57.18-7.87,4.23-9.7l4.06-1.84L52.1,80.3c1.55,1.33,1.75,1.92,3.68,7.62,2.66,7.86,5.25,12.2,8.68,14.53,7.65,5.19,22.79,8.65,45,10.28,6.7.5,29.16.41,37-.14,15.34-1.07,27.4-3.09,35.85-6,5.36-1.84,9.72-4.61,11.11-6.29,2.29-2.75,4.23-6.75,6.51-13.38L214.62,44l.37,74.65c.09,18.54.18,43.87.21,56.46l0,20.71c3.9,5.13,6.06,11.8,7.21,22.2a243.53,243.53,0,0,1,.46,28.35c-1,16.1-3.51,24.86-9,31.25Zm-159.33-14h152.8c2.73-3.92,4.16-10.48,4.87-22a236.46,236.46,0,0,0-.4-25.94c-.86-7.73-2.26-12.49-4.56-15.43l-2.73-3.5,0-25.51c0-12.58-.12-37.88-.21-56.41l0-6.39a48.9,48.9,0,0,1-14.13,7.49c-9.6,3.3-22.87,5.56-39.42,6.72-8.6.6-31.54.68-39,.14-25.39-1.87-41.86-5.89-51.85-12.67a27,27,0,0,1-2.43-1.86c0,11.11-.07,26.51-.07,41.61v46.66l-2.94,4.1a18.15,18.15,0,0,0-2.86,7c-1.43,6-2.1,12-2.31,21C45.52,251.5,48.75,263.44,51.26,267.53ZM126,223.46c-9.78,0-18.9-.25-21.06-1.14-5.57-2.28-5.57-7.18-5.57-9a8.6,8.6,0,0,1,3.91-7.92,13.51,13.51,0,0,1,4.89-1.68c2.26-.33,37-.49,39.68,0h0A10,10,0,0,1,153.63,220l-2.71,3.16-14.2.21C133.26,223.43,129.58,223.46,126,223.46Zm62.89-24.52a13.35,13.35,0,0,1-2-.16c-4.67-.61-7.22-3.76-7.66-9.38-.24-3.08-.26-8.4-.29-20.05l0-13.56c-2,2.6-5.71,4.22-13.61,7.48l-10.89,4.53c5,2.09,10.18,4.32,12,5.15,3.65,1.65,6.53,2.94,7.6,7a11.29,11.29,0,0,1-1.24,8.44,9.07,9.07,0,0,1-5.59,4.32,11,11,0,0,1-5.56-.25c-.7-.22-1.89-.57-26.2-10.45-3.46-1.41-6.26-2.51-7.71-3.07l-5.51,2.2c-4.34,1.73-12.31,4.94-17.71,7.12C94,192.52,93,192.71,92.4,192.81a9.42,9.42,0,0,1-9.78-4.28A10.29,10.29,0,0,1,82,178c1.58-2.9,1.88-3,17.62-9.58l1.47-.61-6-2.46c-11.37-4.67-16-6.59-18.35-9.08v2.41c0,9.05-.11,19.77-.23,23.9-.26,8.68-.45,14.95-7.93,16.2-4.21.71-8.07-.78-10.06-3.88s-2-5-2-30.14l0-25,3.91-3.26c3-2.47,4.95-2.78,6.34-2.78.69,0,2.51,0,5.52,1.91l4.52,2.89v4.89A9.38,9.38,0,0,1,83.88,140c.79,0,1.87,0,6.65,1.76h0c4.91,1.81,13.79,5.37,28,11.21,4,1.66,7.22,3,9.2,3.74,1.73-.68,4.38-1.76,7.63-3.1C168.25,140,169.45,140,171.45,140a9.47,9.47,0,0,1,7.39,3.79V138.4l4.37-2.83a9.5,9.5,0,0,1,5.4-1.87c1.2,0,3.13.25,6,2.4a12.5,12.5,0,0,1,3.46,3.73c.95,1.78,1.07,2,1.08,15.73,0,7.53-.08,16.48-.22,23.92-.2,10.33-.23,11.65-1.43,14.11A9.25,9.25,0,0,1,188.88,198.94Zm-118-10.3Z"/><path class="cls-2" d="M121.65,60.46a3.61,3.61,0,0,0-1.21,1.43c-.48,1-.54,1.67-.54,6.29,0,7.15.46,8.6,2.71,8.6a2,2,0,0,0,1.66-.57c.48-.52.53-1.15.61-6.91.09-7.08-.06-8.12-1.32-8.77-1-.49-1-.5-1.91-.07Z"/><path class="cls-2" d="M122.61,83.78a9,9,0,0,1-8.88-6.52c-.69-2.22-.83-4.91-.83-9.08,0-4.82,0-6.81,1.25-9.35a10.44,10.44,0,0,1,4.37-4.63,8.27,8.27,0,0,1,8.26.12C132,57,132,62,131.88,69.39c-.09,6.9-.12,9-2.41,11.51A8.87,8.87,0,0,1,122.61,83.78Z"/><path class="cls-2" d="M131.7,60.55c-1.17.64-1.35,1.89-1.25,8.86.07,5.7.12,6.27.6,6.8a2.59,2.59,0,0,0,3.49-.25c.64-.85,1.05-4.2,1-8.33s-.28-5.48-1.23-6.41-1.71-1.17-2.63-.67Z"/><path class="cls-2" d="M132.59,83.77a9,9,0,0,1-6.73-2.87c-2.29-2.53-2.32-4.59-2.41-11.4-.1-7.42-.17-12.32,4.89-15.09h0c1.73-.94,6.25-2.66,10.85,1.8,3.31,3.2,3.34,7.36,3.36,11.38.07,9.28-1.68,11.6-2.43,12.59A9.3,9.3,0,0,1,133,83.76Z"/><path class="cls-3" d="M73.17,7.14c-10.46.21-10.2.17-13.85,2.09C52,13.09,47.56,23.71,48.44,35.32c1,13.41,4.73,36.08,7.68,47C59.17,93.58,62.17,99,67,101.92c10.51,6.39,42.55,10.58,70.9,9.27,18.5-.85,33.74-3,43.84-6.32,10.39-3.36,13.79-8.1,18.12-25.22a253.55,253.55,0,0,0,5.07-27.45c2.14-15.35,2.42-22.93,1-28.16q-2.68-10.2-9.27-14.46c-2-1.3-3.63-1.8-7.07-2.21-3-.35-101-.55-116.47-.23Zm57.74,43.51c1.37.9,9.86,9.17,12.76,12.42,1.82,2.05,2.3,2.76,2.56,3.88a6.11,6.11,0,0,1-.89,5.08c-.48.73-4.08,4.51-8,8.37l-7.08,7h-5.24l-7.19-7.17c-4-4-7.52-7.68-7.95-8.31a6.42,6.42,0,0,1-.84-5c.27-1.12.77-1.86,2.84-4.15,3.68-4.07,11.85-11.84,13.14-12.5a6.75,6.75,0,0,1,5.84.38Z"/><path d="M127.23,112.93c-25.64,0-51.55-4-61-9.73C61,100,57.86,94.46,54.67,82.69c-3-10.9-6.7-33.86-7.72-47.26C46,23.13,50.7,12.07,58.62,7.9l.2-.1c3.69-1.94,3.88-1.95,13.76-2.15h.56c15.48-.32,113.62-.11,116.67.24,3.68.43,5.48,1,7.71,2.44,4.7,3,8,8.18,9.91,15.34,1.42,5.43,1.15,13.22-1,28.75A254.07,254.07,0,0,1,201.31,80c-4.45,17.59-8.2,22.75-19.11,26.28-10.25,3.32-25.55,5.53-44.23,6.39C134.43,112.85,130.83,112.93,127.23,112.93ZM73.2,8.64h-.55c-9.37.19-9.37.19-12.44,1.81l-.19.1C53.25,14.12,49.1,24.25,49.94,35.2c1,13.25,4.71,36,7.63,46.71s5.78,16,10.21,18.73c10.18,6.19,42.27,10.34,70.05,9,18.42-.85,33.44-3,43.45-6.24S194.19,96,198.4,79.28a250.13,250.13,0,0,0,5-27.29c2.11-15.09,2.4-22.57,1.08-27.57-1.68-6.4-4.58-11-8.62-13.57-1.83-1.18-3.21-1.61-6.44-2s-101-.54-116.26-.22Zm57.73,80.29h-6.48l-7.63-7.6c-2.93-2.93-7.51-7.62-8.13-8.55a7.89,7.89,0,0,1-1.06-6.2c.36-1.51,1.07-2.47,3.19-4.82,3.36-3.71,11.88-12,13.57-12.83a8.26,8.26,0,0,1,7.35.46h0c1.58,1,10.25,9.54,13,12.68,1.87,2.1,2.55,3.05,2.9,4.53a7.54,7.54,0,0,1-1.1,6.25c-.7,1.08-5.37,5.85-8.15,8.61Zm-5.24-3h4l6.64-6.59c4.27-4.25,7.4-7.61,7.76-8.14a4.63,4.63,0,0,0,.69-3.9c-.18-.73-.41-1.19-2.23-3.23-2.94-3.3-11.32-11.42-12.46-12.17h0a5.32,5.32,0,0,0-4.34-.29c-1.07.6-8.85,7.9-12.7,12.16-2.07,2.29-2.33,2.78-2.5,3.5a4.91,4.91,0,0,0,.63,3.84c.33.47,3.29,3.63,7.76,8.09Z"/><path class="cls-4" d="M36.16,36.93A54.17,54.17,0,0,0,15.68,55.5,52.46,52.46,0,0,0,7,86.2c.18,5.36.51,7.16,2.76,14.86,4.24,14.56,27.26,90,28,91.67.13.3.3-13.32.38-30.72l.15-31.26L32.14,111,26,91.18l.12-6.59c.11-6,.19-6.83.84-9.28a32.67,32.67,0,0,1,5.71-11.2c2.47-3.06,6.56-7.22,8-8.2,1-.64,1.13-.88,1-1.49-.07-.39-.56-4.35-1.1-8.78-.95-8-1.32-10.1-1.7-10.1a29.27,29.27,0,0,0-2.79,1.39Z"/><path d="M36.86,194.45l-.48-1.13c-.83-1.95-24.51-79.77-28-91.84C6.08,93.7,5.71,91.71,5.53,86.25a53.79,53.79,0,0,1,8.9-31.57,55.84,55.84,0,0,1,21-19.07h0C38.38,34,38.58,34,39,34c1.82,0,1.95,1.08,3.19,11.42.57,4.72,1,8.38,1.08,8.71.29,1.69-.84,2.44-1.67,3a57.55,57.55,0,0,0-7.72,7.89,31.46,31.46,0,0,0-5.42,10.64c-.59,2.24-.68,2.88-.79,8.93L27.5,91l12.29,39.57L39.64,162c0,8.31-.1,16-.17,21.81C39.34,194,39.34,194,38.06,194.2ZM38.07,37.62l-1.2.63h0A53.06,53.06,0,0,0,16.93,56.33a50.84,50.84,0,0,0-8.4,29.82c.18,5.24.48,6.87,2.7,14.49,3.3,11.33,18.89,62.54,25.24,83,.06-5.31.13-12.76.17-21.67l.15-31L24.49,91.39l.13-6.83c.12-6.13.2-7,.89-9.64a34.05,34.05,0,0,1,6-11.76c2.34-2.89,6.61-7.33,8.4-8.51l.33-.23c-.16-1.15-.64-5-1.07-8.6C38.9,43.66,38.43,39.69,38.07,37.62Z"/><path class="cls-4" d="M216,36.11c-.14.24-.58,3.58-2.25,17.26l-.22,1.83,1,.67a58,58,0,0,1,8.32,8.48,35.37,35.37,0,0,1,6,13.25,29.6,29.6,0,0,1,.48,7,25.18,25.18,0,0,1-1,8.46c-1,4-3.44,12.13-8.41,28.22l-3,9.67.07,31.31.06,31.32,1.55-4.65c3.71-11.1,22-71,27.27-89.45,2.2-7.65,2.32-8.46,2.31-15a44.12,44.12,0,0,0-2.18-15.19c-4.2-13.85-14.15-25.94-26.38-32.07-2.78-1.4-3.36-1.57-3.67-1.06Z"/><path d="M215.64,202.72l-.16-72,3.05-9.88c4.95-16,7.39-24.18,8.39-28.15a23.54,23.54,0,0,0,1-8.1,27.91,27.91,0,0,0-.45-6.64,33.85,33.85,0,0,0-5.77-12.67,57.25,57.25,0,0,0-7.94-8.13l-1.78-1.18.33-2.75c2.11-17.28,2.15-17.35,2.46-17.86,1.08-1.78,2.89-.87,5.62.49,12.66,6.35,22.81,18.68,27.14,33a45.88,45.88,0,0,1,2.25,15.62c0,6.68-.14,7.69-2.37,15.44-5.25,18.27-23.61,78.5-27.28,89.51Zm2.84-71.58.11,53.11c5.56-17.46,21.13-68.63,25.9-85.21,2.16-7.52,2.26-8.2,2.25-14.61a42.85,42.85,0,0,0-2.12-14.75C240.52,56.14,231,44.49,219,38.51c-.38-.19-1.14-.58-1.76-.85-.31,2.15-1,7.41-2,15.89l-.11.91.23.16c1.92,1.26,7,6.5,8.7,8.84a36.85,36.85,0,0,1,6.29,13.82,30.64,30.64,0,0,1,.52,7.29,26.61,26.61,0,0,1-1,8.83c-1,4-3.46,12.22-8.43,28.29ZM217.3,36.89h0Z"/><path class="cls-5" d="M47.26,97.44c-.09,6.56-.17,31.92-.17,56.34v44.41l-1.63,2.27a25.27,25.27,0,0,0-4,9.42c-1.54,6.42-2.27,13-2.5,22.45-.45,18.85,2.6,35,7.7,40.76L48,274.53h159.4l1.24-1.44C213,268,215,260.36,215.92,246a238.69,238.69,0,0,0-.43-27.15c-1-9.17-2.83-14.89-6-18.95l-1.25-1.61,0-23.11c0-12.71-.12-38.1-.21-56.43l-.16-33.33-1.32,3.83c-2.57,7.51-4.85,12.1-7.73,15.57-2.47,3-8.16,6.36-14.22,8.44-9,3.09-21.72,5.24-37.64,6.35-8.17.57-30.94.66-38,.14-23.84-1.74-39.6-5.48-48.43-11.47-4.78-3.25-8.18-8.65-11.37-18.08-.83-2.45-1.56-4.51-1.61-4.56s-.18,5.29-.28,11.84Zm21.21,44.08,1.29.81,0,16.32c0,9-.11,19.64-.23,23.7-.25,8.55-.4,9.23-2.08,9.5-1.42.24-2.57,0-3-.76-.77-1.2-.9-4.89-.91-26.36l0-21.71,1.4-1.16a5.5,5.5,0,0,1,1.85-1.16,5.26,5.26,0,0,1,1.75.82Zm121.84.15a7.06,7.06,0,0,1,1.54,1.48c.32.6.34,20.43,0,36.19-.18,9.26-.24,10.2-.72,11.18-.61,1.24-1.5,1.61-3.22,1.34-2.06-.32-2,.92-2-25.9l-.07-23.76,1.16-.75a4.85,4.85,0,0,1,1.6-.75,4.93,4.93,0,0,1,1.71,1Zm-102.2,6.64c4.82,1.77,13.66,5.32,27.7,11.11,6.36,2.62,11.69,4.77,11.87,4.77s4.82-1.87,10.31-4.13c21.46-8.87,32.23-13.08,33.46-13.08a3,3,0,0,1,2.38,2.05,2.06,2.06,0,0,1-.19,2c-.61,1.24-2.69,2.33-11,5.78-12.46,5.14-19.93,8.32-22.76,9.66l-3,1.41,2,.93c1.11.51,6.31,2.73,11.58,4.95s11.12,4.72,13,5.58c3.17,1.43,3.5,1.65,3.71,2.42.43,1.66-.49,3.87-1.76,4.19a4.2,4.2,0,0,1-1.83-.16c-1.06-.32-9.39-3.66-25.59-10.24-4.29-1.74-8.4-3.36-9.16-3.6l-1.38-.43-7.91,3.15c-4.35,1.74-12.33,4.94-17.74,7.13s-10.24,4.05-10.73,4.14a2.51,2.51,0,0,1-2.74-1.37,3.29,3.29,0,0,1-.29-3.22c.37-.67,1.63-1.25,14.17-6.48,11.2-4.66,15.59-6.56,15.95-6.88s-5.68-3-20.46-9.12c-14.09-5.8-15.73-6.62-16.26-8.19s.78-3.69,2.39-3.69a28.24,28.24,0,0,1,4.23,1.33Zm58.4,62.3a2.68,2.68,0,0,1,2.46,2.88,2.66,2.66,0,0,1-.66,2l-.65.77-11,.16c-13.63.19-27.89-.07-29-.53s-1.23-.72-1.23-2.55c0-1.4.08-1.64.68-2a6.93,6.93,0,0,1,2.13-.64c2-.3,35.84-.31,37.34,0Z"/><path d="M208.05,276H47.28l-1.72-1.95C40.19,268,37,251.6,37.48,232.3c.23-9.48,1-16.29,2.54-22.77a26.81,26.81,0,0,1,4.22-9.95l1.35-1.87V153.78c0-24.49.08-49.77.17-56.36.05-3.26.11-6.22.16-8.36.1-4.42.1-4.42,1-4.82l.87-.4.72.63c.38.32.41.35,2.06,5.21,3.07,9.09,6.3,14.27,10.8,17.32,8.58,5.83,24.18,9.5,47.69,11.22,7,.51,29.6.43,37.75-.14,15.82-1.11,28.36-3.22,37.26-6.28,5.81-2,11.25-5.2,13.56-8,2.73-3.3,5-7.81,7.47-15.1l4.18-12.2.21,42.18c.09,18.53.18,43.85.21,56.44l0,22.59.94,1.21c3.36,4.31,5.24,10.2,6.3,19.71a245.56,245.56,0,0,1,.44,27.41c-.92,14.76-3.07,22.62-7.68,28ZM48.64,273h158l.79-.92c4.14-4.84,6.1-12.19,7-26.24A238.83,238.83,0,0,0,214,219c-1-8.91-2.69-14.36-5.69-18.2l-1.57-2,0-23.62c0-12.58-.12-37.9-.21-56.42L206.37,94c-2.05,5.25-4.05,8.89-6.43,11.75-2.67,3.22-8.52,6.72-14.9,8.91-9.15,3.14-21.94,5.3-38,6.43-8.24.58-31.08.66-38.18.14-24-1.76-40.13-5.6-49.16-11.73-4.52-3.07-7.85-7.87-10.86-15.77,0,1.16,0,2.41-.06,3.76h0c-.09,6.57-.17,31.83-.17,56.31v44.89l-1.91,2.66a23.85,23.85,0,0,0-3.74,8.9c-1.52,6.35-2.23,12.76-2.46,22.14C40,250.68,43,266.64,47.8,272.09Zm78.57-55.09c-8.77,0-18.85-.16-20.19-.7-2-.8-2.16-1.87-2.16-3.94,0-1.5.09-2.47,1.37-3.29a8.19,8.19,0,0,1,2.72-.87c2.22-.32,36.17-.33,37.84,0h0a4.51,4.51,0,0,1,2.66,7.29l-1.1,1.28-11.71.17C134.18,217.91,130.8,217.94,127.21,217.94Zm-19.31-3.59.25.11c1.2.3,13.75.63,28.45.42l10.36-.15.21-.25a1.23,1.23,0,0,0,.3-1c0-.77-.19-1.2-1.23-1.41-2-.25-35-.23-36.85,0a6.29,6.29,0,0,0-1.51.41,7.79,7.79,0,0,0,0,.78A8.29,8.29,0,0,0,107.9,214.35Zm81-20.9a8.52,8.52,0,0,1-1.18-.1l-.22,0c-3-.39-3-.39-3.08-24l-.07-28,1.85-1.19a5.49,5.49,0,0,1,2.41-1,5.06,5.06,0,0,1,2.62,1.27h0a9.25,9.25,0,0,1,2,2c.82,1.54.21,36.58.2,36.93-.18,9.41-.22,10.48-.87,11.81A3.74,3.74,0,0,1,188.89,193.45Zm-1-3.11.3,0c1.28.2,1.4,0,1.64-.52.33-.68.4-2,.56-10.54.3-15.36.28-32.9.05-35.56a8.79,8.79,0,0,0-1-.9h0a7.38,7.38,0,0,0-.85-.57,8,8,0,0,0-.73.42l-.48.3.07,26.31C187.45,182.46,187.47,188.87,187.88,190.34ZM66.51,193.43a3.84,3.84,0,0,1-3.37-1.53c-1-1.52-1.14-3.49-1.15-27.17l0-22.41,1.94-1.62a5.25,5.25,0,0,1,2.81-1.5,6.08,6.08,0,0,1,2.56,1.05l2,1.26,0,17.15c0,9-.11,19.65-.23,23.73-.25,8.44-.31,10.44-3.33,10.94A6.94,6.94,0,0,1,66.51,193.43ZM65,143.72l0,21c0,17.05.07,24.62.67,25.55a2.42,2.42,0,0,0,1.53.09l.22,0c.39-.77.5-4.62.6-8,.12-4.06.22-14.67.23-23.66l0-15.49-.59-.38h0a8.47,8.47,0,0,0-.87-.48,8.69,8.69,0,0,0-1,.71Zm1.53-1.55ZM165,187.49a6.35,6.35,0,0,1-1.8-.28c-.71-.21-4.15-1.51-25.72-10.28-4.63-1.88-8.42-3.35-9.06-3.56l-.86-.27-7.41,3-17.74,7.13c-.41.16-10,4-11,4.23a4,4,0,0,1-4.24-2,4.74,4.74,0,0,1-.38-4.79c.64-1.17,1.06-1.37,14.91-7.14,3.28-1.37,9.84-4.1,13.36-5.64-3-1.4-9-3.94-17.86-7.6-14.46-5.94-16.34-6.79-17.11-9.1a4.43,4.43,0,0,1,.69-3.95,3.86,3.86,0,0,1,3.12-1.71,26.21,26.21,0,0,1,4.75,1.42c4.85,1.78,13.66,5.32,27.75,11.13,5.56,2.3,10,4.06,11.3,4.57,1.15-.43,4.64-1.83,9.73-3.93,31.93-13.19,33.25-13.19,34-13.19a4.37,4.37,0,0,1,3.8,3.07,3.49,3.49,0,0,1-.26,3.13c-.84,1.71-2.72,2.75-11.82,6.51-12.46,5.14-19.88,8.29-22.68,9.62l-.07,0c2,.86,6.27,2.69,10.63,4.52,5.27,2.21,11.13,4.73,13.08,5.6,3.17,1.44,4.13,1.87,4.54,3.41a5.78,5.78,0,0,1-.65,4.24,3.26,3.26,0,0,1-3,1.88Zm-75.63-5.36a1.87,1.87,0,0,0,.25,1.58c.59.87.87.81,1.22.75s4.47-1.65,10.45-4.06c5.41-2.19,13.39-5.4,17.74-7.13l8.41-3.36,1.89.6c.9.29,5.42,2.08,9.27,3.64,15.89,6.46,24.46,9.89,25.47,10.19a3.28,3.28,0,0,0,1.06.14,2.62,2.62,0,0,0,.63-2.35h0a23.77,23.77,0,0,0-2.87-1.42c-1.92-.87-7.76-3.37-13-5.57s-10.5-4.45-11.63-5l-4.94-2.26,5.88-2.8c2.85-1.35,10.32-4.52,22.82-9.69,6.34-2.61,9.86-4.19,10.27-5a1.74,1.74,0,0,0,.21-.5,1.32,1.32,0,0,0-.09-.36,1.65,1.65,0,0,0-1-1c-.95.13-7.51,2.48-32.88,13-10.27,4.25-10.56,4.25-10.88,4.25s-.62,0-12.45-4.88c-14-5.8-22.83-9.33-27.64-11.1h0c-1.85-.68-3.34-1.14-3.77-1.23a1.1,1.1,0,0,0-.63.47,1.47,1.47,0,0,0-.27,1.24c.32,1,3.57,2.41,15.4,7.28,21.12,8.68,21.18,9,21.39,10.21l.14.82-.64.6c-.39.35-.68.61-16.37,7.15C94.54,179.71,90.08,181.58,89.37,182.13Z"/><path class="cls-4" d="M121.65,60.46a3.61,3.61,0,0,0-1.21,1.43c-.48,1-.54,1.67-.54,6.29,0,7.15.46,8.6,2.71,8.6a2,2,0,0,0,1.66-.57c.48-.52.53-1.15.61-6.91.09-7.08-.06-8.12-1.32-8.77-1-.49-1-.5-1.91-.07Z"/><path d="M122.61,78.28c-4.21,0-4.21-4.24-4.21-10.1,0-4.7.06-5.64.69-6.94A4.92,4.92,0,0,1,121,59.12a2.89,2.89,0,0,1,3.27.08c2.16,1.11,2.22,3,2.13,10.12-.08,6-.09,6.9-1,7.89A3.5,3.5,0,0,1,122.61,78.28Zm-.25-16.5a2.71,2.71,0,0,0-.57.77c-.32.66-.39,1.17-.39,5.63,0,7.1.56,7.1,1.21,7.1a1.27,1.27,0,0,0,.53-.06,50.65,50.65,0,0,0,.24-5.94c.07-5.58,0-7.17-.5-7.41l-.34-.17Z"/><path class="cls-4" d="M131.7,60.55c-1.17.64-1.35,1.89-1.25,8.86.07,5.7.12,6.27.6,6.8a2.59,2.59,0,0,0,3.49-.25c.64-.85,1.05-4.2,1-8.33s-.28-5.48-1.23-6.41-1.71-1.17-2.63-.67Z"/><path d="M132.59,78.27a3.51,3.51,0,0,1-2.65-1.06c-.9-1-.91-1.76-1-7.78-.1-7,0-9.07,2-10.2h0c2-1.07,3.37-.07,4.39.92,1.4,1.35,1.66,3.14,1.69,7.47,0,2.23-.08,7.6-1.32,9.24a3.89,3.89,0,0,1-2.94,1.41Zm-.17-16.41c-.53.29-.53,3.58-.47,7.53a44.16,44.16,0,0,0,.24,5.86,1.54,1.54,0,0,0,1.15-.19c.24-.4.76-2.78.72-7.42,0-3.92-.27-4.85-.78-5.34a2.54,2.54,0,0,0-.68-.53Z"/></g></g></svg>